/* XPM */
static char *result[] = {
/* columns rows colors chars-per-pixel */
"50 50 206 2 ",
"   c #0B1408",
".  c #151E08",
"X  c #1A2609",
"o  c #212D0C",
"O  c #2A360D",
"+  c #292A13",
"@  c #2F3A12",
"#  c #2A3610",
"$  c #333F16",
"%  c #3B4619",
"&  c #47401E",
"*  c #4A5426",
"=  c #545927",
"-  c #555D3E",
";  c #685A2E",
":  c #596324",
">  c #5C653B",
",  c #636F3F",
"<  c #737736",
"1  c #6E7949",
"2  c #707A44",
"3  c #747F51",
"4  c #9F3300",
"5  c #A22C06",
"6  c #A33402",
"7  c #A93505",
"8  c #A63900",
"9  c #AB3B01",
"0  c #AA360A",
"q  c #AC3A0C",
"w  c #B13F01",
"e  c #AB3E19",
"r  c #A63C1E",
"t  c #AF4102",
"y  c #B34301",
"u  c #B94601",
"i  c #BD4B02",
"p  c #B3460B",
"a  c #B84C0C",
"s  c #BE510C",
"d  c #B94F13",
"f  c #B24613",
"g  c #BC5514",
"h  c #BE5816",
"j  c #BF5A19",
"k  c #B25232",
"l  c #887131",
"z  c #C24D01",
"x  c #C55202",
"c  c #CB5501",
"v  c #CE5904",
"b  c #C95709",
"n  c #CB5C0A",
"m  c #C5570B",
"M  c #D35C01",
"N  c #D05700",
"B  c #C15913",
"V  c #C25E1B",
"C  c #C05711",
"Z  c #D66104",
"A  c #DB6402",
"S  c #DD6905",
"D  c #D4640A",
"F  c #DC6D0A",
"G  c #D5690F",
"H  c #DE700B",
"J  c #C96319",
"K  c #D46A14",
"L  c #DD7416",
"P  c #DD7A1E",
"I  c #E26C03",
"U  c #E06702",
"Y  c #E67105",
"T  c #E97506",
"R  c #E3740B",
"E  c #E97608",
"W  c #E7790D",
"Q  c #EC7C0C",
"!  c #EB7807",
"~  c #E67B12",
"^  c #EC7E12",
"/  c #E37B1A",
"(  c #C56422",
")  c #C96D2B",
"_  c #C86620",
"`  c #CD722E",
"'  c #D57425",
"]  c #DC7B25",
"[  c #CE7635",
"{  c #D07A3A",
"}  c #B35F48",
"|  c #BC6545",
" . c #74804C",
".. c #B68538",
"X. c #EF810F",
"o. c #ED8214",
"O. c #ED841B",
"+. c #F18414",
"@. c #F38917",
"#. c #F0841A",
"$. c #F48B1B",
"%. c #F9921E",
"&. c #CD8D3B",
"*. c #D6803A",
"=. c #ED8924",
"-. c #E2852F",
";. c #ED8928",
":. c #F28C23",
">. c #F28E29",
",. c #F69124",
"<. c #F99525",
"1. c #F5942C",
"2. c #F99729",
"3. c #FC9B2C",
"4. c #FD9927",
"5. c #E58935",
"6. c #ED9135",
"7. c #EC9239",
"8. c #F29333",
"9. c #F59935",
"0. c #FA9D34",
"q. c #F59C3C",
"w. c #F99E39",
"e. c #F2963A",
"r. c #FDA136",
"t. c #FCA33B",
"y. c #978B51",
"u. c #BA9453",
"i. c #BA8E4B",
"p. c #8A9173",
"a. c #D58548",
"s. c #D28B58",
"d. c #D7905A",
"f. c #E79649",
"g. c #F29C43",
"h. c #F29E4A",
"j. c #EA9C55",
"k. c #F6A143",
"l. c #FBA645",
"z. c #FDA844",
"x. c #F5A24B",
"c. c #F9A64A",
"v. c #FCA94C",
"b. c #EEA159",
"n. c #F3A353",
"m. c #FBAC53",
"M. c #F6AA5C",
"N. c #FBAE5A",
"B. c #F2A65D",
"V. c #FDB15C",
"C. c #D49979",
"Z. c #D99764",
"A. c #DEA171",
"S. c #EEAA68",
"D. c #F4AC64",
"F. c #FAAE62",
"G. c #F1AE6C",
"H. c #F8AF68",
"J. c #F5B064",
"K. c #FAB264",
"L. c #F6B369",
"P. c #FAB46B",
"I. c #FAB86F",
"U. c #F3AE70",
"Y. c #F4B373",
"T. c #FAB673",
"R. c #F6BB74",
"E. c #FAB974",
"W. c #F9B77B",
"Q. c #F6BC7A",
"!. c #FABC7C",
"~. c #F5B77C",
"^. c #F8C07E",
"/. c #ABAB89",
"(. c #E0AD85",
"). c #E0B08B",
"_. c #F5BD81",
"`. c #FBBD82",
"'. c #E5BC9C",
"]. c #F6C183",
"[. c #F9C185",
"{. c #FAC48B",
"}. c #F7C389",
"|. c #EEC192",
" X c #FAC691",
".X c #F6C99F",
"XX c #F8C897",
"oX c #C4C7B4",
"OX c #E8C4A7",
"+X c #FBCCA3",
"@X c #FBD2AC",
"#X c #F7D1A6",
"$X c #F6D7B7",
"%X c #D0D2CA",
"&X c #C8CBC0",
"*X c #F5DEC3",
"=X c #F6DFC7",
"-X c #E1D9C9",
";X c #DFE1D5",
":X c #F9E1C9",
">X c #F7E8D9",
",X c #F4EDE6",
"<X c #F7F3EF",
"1X c #F5F5F5",
"2X c #E8E8E6",
"3X c None",
/* pixels */
"3X3X3X3X3X3X3X3X3X3X3X3X3X3X3X3X3X3X3X3X3X3X3X3X3X3X3X3X3X3X3X3X3X3X3X3X3X3X3X3X3X3X3X3X3X3X3X3X3X3X",
"3X3X3X3X3X3X3X3X3X3X3X3X3X3X3X3X3X3X3X3X3X3X3X3X3X3X3X3X3X3X3X3X3X3X3X3X3X3X3X3X3X3X3X3X3X3X3X3X3X3X",
"3X3X3X3X3X3X3X3X3X3X3X3X3X3X3X3X3X3X3X3X3X3X3X3X3X3X3X3X3X3X3X3X3X3X3X3X3X3X3X3X3X3X3X3X3X3X3X3X3X3X",
"3X3X3X3X3X3X3X3X3X3X3X3X3X3X3X3X3X3X3X3X3X3X3X3X3X3X3X3X3X3X3X3X3X3X3X3X3X3X3X3X3X3X3X3X3X3X3X3X3X3X",
"3X3X3X3X3X3X3X3X3X3X3X3X3X3X3X3X3X3X3X3X3X3X3X1 = 3X3X3X3X3X3X3X3X3X3X3X3X3X3X3X3X3X3X3X3X3X3X3X3X3X",
"3X3X3X3X3X3X3X3X3X3X3X3X3X3X3X3X3X3X3X3X3X3X3X/.% > 3X3X3X3X3X3X3X3X3X3X3X3X3X3X3X3X3X3X3X3X3X3X3X3X",
"3X3X3X3X3X3X3X3X3X3X3X3X3X3X3X3X3X3X3X3X3X3X3X3X1 O p.3X3X3X3X3X3X3X3X3X3X3X3X3X3X3X3X3X3X3X3X3X3X3X",
"3X3X3X3X3X3X3X3X3X3X3X3X3X3X3X3X3X3X3X3X3X3X3X3X1 O * &X3X3X3X3X3X3X3X3X3X3X3X3X3X3X3X3X3X3X3X3X3X3X",
"3X3X3X3X3X3X3X3X3X3X3X3X3X3X3X3X3X3X3X3X3X3X3X;X .% # p.3X3X3X3X3X3X3X3X3X3X3X3X3X3X3X3X3X3X3X3X3X3X",
"3X3X3X3X3X3X3X3X3X3X3X3X3X3X3X3X3X3X3X3X3X3X3XoX .% o - 2X3X3X3X3X3X3X3X3X3X3X3X3X3X3X3X3X3X3X3X3X3X",
"3X3X3X3X3X3X3X3X3X3X3X3X3X3X3X3X3X3X3X3X3X3X1Xp.1 % X % %X3X3X3X3X3X3X3X3X3X3X3X3X3X3X3X3X3X3X3X3X3X",
"3X3X3X3X3X3X3X3X3X3X3X3X3X3X3X3X3X3X3X3X1X<X-X: 2 % . # /.$X#X@X=X:X3X3X3X3X3X3X3X3X3X3X3X3X3X3X3X3X",
"3X3X3X3X3X3X3X3X3X3X3X3X@X X{.{. XXX+X@X#XR.u.* 2 @   X l K.v.v.N.P.`.@X:X3X3X3X3X3X3X3X3X3X3X3X3X3X",
"3X3X3X3X3X3X3X3X3X.X!.I.P.K.K.N.V.L.U.U.b.7.< = < X   X & ..g.h.x.m.N.K.P.!. X$X3X3X3X3X3X3X3X3X3X3X",
"3X3X3X3X3X3X3XXXE.!.`.E.V.c.q.8.8.8.g.b.j...: : : # + & = ; i.D.K.P.T.W.`.`.`.{.+X3X3X3X3X3X3X3X3X3X",
"3X3X3X3X3X3XQ.Q.{.!.K.v.r.2.:.:.=.8.h.B.S.i.< y.s.&.f.D.H.D.D.`.W.V.m.m.P.T.L.M.H.~..X3X3X3X3X3X3X3X",
"3X3X3X3X$XI.^.[.T.N.l.w.1.:.$.>.h.P.`.`.W.Y.'.{.V.r.t.c.m.v.z.x.n.7.1.,.=.6.f.b.7.-.f.G.3X3X3X3X3X3X",
"3X3X3X:XR.[.}.E.N.c.w.1.:.:.e.H.W.W.`.B.6.F.{.T.v.0.1.8.0.0.9.8.6.-.O.O.o.W / ] 5.-.~ ] f.3X3X3X3X3X",
"3X3X3X^.^.{.E.m.z.w.>.^ =.g.W.!.T.T.h.^ >.F.T.P.v.1.=.$.:.,.#.^ / P L ~ W F S Z D ' ] K K *.3X3X3X3X",
"3X3X#X^.{.^.m.t.w.1.:.:.w.T.T.T.F.h.^ ^ ;.m.N.N.t.$.^ ^ O.O.^ R H K G D S Z Z v c v ) ' n K a.3X3X3X",
"3X,X^.[.{.K.z.0.1.:.^ 1.V.V.m.N.g.^ R R =.x.v.w.:.~ R W Q X.R A Z D n x v v c v x x B ` J b J A.3X3X",
"3X$X^.XX!.m.r.2.,.^ ^ w.v.r.r.0.:.E S I =.l.0.,.o.Y F S H W I Z c v n z x x x x x i i J ` m m { 3X3X",
",XXX[.XXW.v.0.<.:.^ :.l.r.4.3.$.^ U M A ^ w.2.@.Y U Z N Z I A N x z s i u i i i i i u s ) J s J (.3X",
",X[. X XT.h.2.,.^ ^ 2.v.3.<.<.@.Y U M M ^ 2.,.^ I A N c N A Z c i i i u y u u u u u y u g J i g d.3X",
":X}.}.}.L.k.2.$.+.#.t.t.4.<.,.Q I A M M ^ %.$.Q I A c x c M N z u u i y 9 y y w y w y u a ( s s { 3X",
":X].}.^.V.t.,.@.+.>.z.r.4.<.$.Q I A N M +.,.%.! U N z z x N c z u u u y 9 w y y 9 9 8 9 y ( g i ) 3X",
"$X].].R.m.9.$.O.+.1.z.r.<.<.@.Q I U N M +.%.$.! U N z i z c c z u y u y 9 9 w 9 9 9 7 8 y J j i _ 3X",
"$X].Q.L.m.1.$.o.@.0.z.3.<.>.#.Q U M N M +.%.@.T A c z z x x z z u y u y 9 9 9 9 9 9 8 8 t j J i ( OX",
":XQ.^.J.c.1.$.O.$.r.z.3.,.>.#.T U A N M +.$.@.Y M c z z z x x i y y y y 9 9 9 8 8 9 9 8 t h V a J '.",
"*XR.J.N.l.1.$.@.%.t.t.3.1.:.#.Y M M N A ^ @.+.Y M c z u z x z u u w y y 8 8 9 9 9 8 9 9 9 g V s ) OX",
">XQ.V.m.l.1.%.$.$.t.w.<.>.:.^ I M A N M ^ +.Q I M N z z z x z u y w u 9 7 7 9 8 9 8 8 9 y g V s ) OX",
",X_.M.c.l.0.,.$.$.t.0.%.=.=.Q Y A M M M Q Q Q I N N z u i x i i y y y y 8 8 9 8 8 9 9 9 9 h V h { 3X",
"1X|.n.x.k.t.1.,.@.r.r.%.@.O.X.Y A A M M E ! Y U M N z z z x z u y y y y 8 8 8 8 8 8 8 8 t h ( h a.3X",
"3X@Xx.k.t.r.<.$.O.0.r.@.+.+.! T U A A Z Y T Y S M N x z z x z y w w u 9 8 8 8 t 8 8 8 t y j J V Z.3X",
"3X3Xb.t.t.q.<.%.+.<.r.$.X.X.X.! I A Z Z Y T I A M N c z z c z y y t y t 8 8 8 8 8 t 8 8 t j V ( ).3X",
"3X3XU.g.q.9.<.$.+.+.3.$.X.X.X.! I A M M S T I A N N c z x x z y y t y 9 4 8 8 8 8 8 t t p j j ` 3X3X",
"3X3X3Xg.e.9.1.@.X.X.%.%.+.X.! ! I A M M I I U M N N c z z z z y y t t 8 8 8 8 8 8 8 9 t a j h d.3X3X",
"3X3X3XL.e.8.1.o.X.X.@.$.X.X.! ! U A M M I U U M c c x u i i u y t t 9 8 4 4 4 8 8 8 8 t d g V 3X3X3X",
"3X3X3X3Xh.1.,.$.H X.X.@.X.! ! ! I A M M S A M M x c z y u u y w 9 9 9 4 4 4 4 4 4 8 8 t d g s.3X3X3X",
"3X3X3X3X3X6.=.=.X.H H o.o.W Y R I S M N A A M N x z z y y y w w 8 8 8 4 4 4 4 4 4 8 8 p a ( 3X3X3X3X",
"3X3X3X3X3X3X=.$.o.X.W W o.X.H H F A N c Z M M c x z u u y w 9 7 6 6 4 4 4 4 4 4 8 8 9 p d 3X3X3X3X3X",
"3X3X3X3X3X3X3X=.o.o.W X.W H Y H F D M c N M N x z z u y w 9 7 6 6 6 4 4 4 4 5 6 7 9 t f C.3X3X3X3X3X",
"3X3X3X3X3X3X3X3X3XO.W L X.H H H F Z M v v c x x z i u w w 7 7 6 6 6 6 4 6 5 6 0 q t f C.3X3X3X3X3X3X",
"3X3X3X3X3X3X3X3X3X3Xf.o.H H X.H R F n v v v c x z i u w w 7 7 8 8 7 6 7 6 5 5 0 q k 3X3X3X3X3X3X3X3X",
"3X3X3X3X3X3X3X3X3X3X3X3X3X-.L H F G D M b v b b x i u y q q 7 q 0 7 5 5 5 5 e | 3X3X3X3X3X3X3X3X3X3X",
"3X3X3X3X3X3X3X3X3X3X3X3X3X3X3X3Xf.' K n b b b m x i u f f q q q f r r k } 3X3X3X3X3X3X3X3X3X3X3X3X3X",
"3X3X3X3X3X3X3X3X3X3X3X3X3X3X3X3X3X3X3X3X3X3X3X3X3X3X3X3X3X3X3X3X3X3X3X3X3X3X3X3X3X3X3X3X3X3X3X3X3X3X",
"3X3X3X3X3X3X3X3X3X3X3X3X3X3X3X3X3X3X3X3X3X3X3X3X3X3X3X3X3X3X3X3X3X3X3X3X3X3X3X3X3X3X3X3X3X3X3X3X3X3X",
"3X3X3X3X3X3X3X3X3X3X3X3X3X3X3X3X3X3X3X3X3X3X3X3X3X3X3X3X3X3X3X3X3X3X3X3X3X3X3X3X3X3X3X3X3X3X3X3X3X3X",
"3X3X3X3X3X3X3X3X3X3X3X3X3X3X3X3X3X3X3X3X3X3X3X3X3X3X3X3X3X3X3X3X3X3X3X3X3X3X3X3X3X3X3X3X3X3X3X3X3X3X"
};
